<?xml version='1.0' encoding='utf-8'?>
<svg xmlns="http://www.w3.org/2000/svg" version="1.1" width="600px" height="976px" viewBox="0 0 600 976"> <g id="layer1"> <g style="fill:rgb(255,0,0); fill-opacity:1.0; stroke-linejoin: miter"> <path d="M102.07423,378.2451L102.047966,578.7481L103.09417,578.74835L637.6915,578.8182L637.71783,378.31546L102.07441,378.2451"/> </g> <g style="fill:rgb(255,255,255); fill-opacity:1.0; stroke-linejoin: miter"> <path d="M122.10819,398.29807L122.08718,558.7005L123.042046,558.7006L610.97876,558.76434L610.9999,398.36218L122.108376,398.29807"/> </g> <g style="fill:rgb(255,0,0); fill-opacity:1.0; stroke-linejoin: miter"> <path d="M139.10114,417.92798L139.10114,541.0689L139.9913,541.069L594.86456,541.069L594.86475,417.928L139.1013,417.92798"/> </g> <g> <g style="fill:rgb(255,255,255); fill-opacity:1.0; stroke-linejoin: miter"> <path d="M309.01944,439.70398L309.00824,447.3111L317.34366,447.32336L317.3549,439.71625L309.01944,439.70398 Z M381.28458,459.19244Q381.29166,459.19244,381.29868,459.19244Q383.96927,459.19635,385.05777,461.90906Q386.10587,464.58118,386.09717,470.48877L386.06955,489.2232Q386.0154,498.48932,383.98935,500.46906Q383.01932,501.43622,381.3261,501.43622Q381.32175,501.43622,381.31735,501.43622Q378.08032,501.43146,376.91107,498.55682Q375.74185,495.7226,375.7513,489.28894L375.77917,470.39264Q375.78433,466.8723,376.11145,464.5664Q376.3981,462.26044,377.4929,460.72443Q378.5848,459.19244,381.28458,459.19244 Z M226.5161,458.96436Q226.52147,458.96436,226.52682,458.96436Q228.14537,458.96674,229.1558,459.73706Q231.6213,461.602,231.60854,470.2611L231.57104,495.71246Q231.56288,501.25592,230.5873,504.28925Q229.6537,507.27747,226.46574,507.27747Q226.4607,507.27747,226.45564,507.27747Q226.37471,507.2774,226.29378,507.27722Q224.79663,507.27502,223.78618,506.5047Q221.2802,504.6397,221.29338,495.69733L221.33089,470.24597Q221.33882,464.86438,222.3143,461.912Q223.24779,458.96436,226.5161,458.96436 Z M471.56143,459.3255Q471.56677,459.3255,471.57214,459.3255Q473.1907,459.32782,474.2011,460.09814Q476.66666,461.96307,476.65387,470.62225L476.61636,496.07355Q476.60822,501.617,475.63263,504.6504Q474.699,507.63855,471.51105,507.63855Q471.506,507.63855,471.50095,507.63855Q471.42004,507.6385,471.3391,507.63837Q469.84198,507.6361,468.8315,506.86584Q466.32553,505.00085,466.33875,496.05847L466.37622,470.60706Q466.38416,465.22546,467.35965,462.27307Q468.29312,459.3255,471.56143,459.3255 Z M508.5449,459.37994Q508.5502,459.37994,508.55554,459.37994Q510.1741,459.3824,511.18454,460.15265Q513.65,462.01758,513.63727,470.67676L513.5998,496.1281Q513.5916,501.67157,512.616,504.70483Q511.68243,507.6931,508.49432,507.6931Q508.48932,507.6931,508.48434,507.6931Q508.40344,507.693,508.32248,507.6928Q506.82535,507.69067,505.81494,506.9203Q503.30893,505.0553,503.32208,496.1129L503.35962,470.66156Q503.36755,465.27997,504.34302,462.32758Q505.27652,459.37994,508.5449,459.37994 Z M268.68082,452.06683Q265.09195,452.06683,262.58685,454.08093Q260.0752,456.06,259.22095,459.1339L259.23022,452.82166L250.93529,452.80945L250.84584,513.5043L259.1408,513.51654L259.21045,466.25543Q259.21527,462.9779,260.75568,461.07843Q262.2925,459.2237,265.19598,459.2237Q265.20267,459.2237,265.20938,459.2237Q269.98404,459.2307,269.97504,465.34064L269.90402,513.5324L278.23944,513.5447L278.3112,464.86737Q278.7235,459.2517,284.21124,459.2517Q284.21918,459.2517,284.2271,459.2517Q289.0827,459.25885,289.0736,465.40924L289.00266,513.56055L297.29764,513.57275L297.36823,465.66425Q297.37808,458.98785,294.87442,455.54474Q292.37076,452.10168,287.55563,452.0946Q287.54517,452.0946,287.53473,452.0946Q284.10812,452.0946,281.44324,453.74463Q278.8107,455.39972,277.26892,458.22992Q275.09296,452.07623,268.69977,452.06683Q268.69028,452.06683,268.68082,452.06683 Z M309.0,452.89502L308.91055,513.5899L317.20554,513.6021L317.29498,452.9073L309.0,452.89502 Z M347.8234,452.18347Q343.7919,452.18347,341.04486,454.318Q338.3307,456.4181,337.51712,459.37073L337.5266,452.93707L329.23166,452.92487L329.1422,513.6197L337.43716,513.6319L337.5072,466.0876Q337.51233,462.6078,339.1739,460.8703Q340.83194,459.13647,343.3336,459.13647Q343.33887,459.13647,343.3442,459.13647Q345.8529,459.1402,347.26685,460.67987Q348.6808,462.21954,348.67624,465.2948L348.60498,513.64844L356.89993,513.6606L356.97128,465.26654Q356.98083,458.79242,354.43652,455.4707Q351.93265,452.1895,347.84583,452.18347Q347.83463,452.18347,347.8234,452.18347 Z M551.5558,452.4837Q547.5243,452.4837,544.7773,454.61823Q542.0631,456.71832,541.24945,459.67096L541.259,453.2373L532.96405,453.2251L532.8746,513.9199L541.1695,513.9321L541.23956,466.38788Q541.2447,462.90802,542.90625,461.17053Q544.56433,459.4367,547.0659,459.4367Q547.0712,459.4367,547.07654,459.4367Q549.58527,459.44043,550.9992,460.9801Q552.4132,462.51984,552.4086,465.59503L552.3374,513.94867L560.6323,513.9608L560.7037,465.56677Q560.71326,459.09265,558.1689,455.77094Q555.66504,452.48975,551.57825,452.4837Q551.567,452.4837,551.5558,452.4837 Z M190.89746,451.9926Q184.56839,451.9926,181.29364,455.7011Q179.79399,457.39832,178.57468,461.07874Q177.39589,464.71863,177.38425,472.609L177.35431,492.9215Q177.3459,498.6269,177.98718,502.79553Q179.79132,514.12787,190.39268,514.14355Q190.40994,514.14355,190.42719,514.14355Q197.11801,514.14355,200.39276,510.31427Q203.67596,506.47504,203.69427,494.05286L203.70006,490.12793L195.52647,490.1159L195.51782,495.98303Q195.50674,503.50922,194.24976,505.28778Q192.99571,507.0218,190.29414,507.0218Q190.28798,507.0218,190.2818,507.0218Q187.57076,507.01782,186.60335,504.5077Q185.67633,502.03802,185.6855,495.8067L185.72356,469.9912Q185.73006,465.5807,186.34068,463.07288Q187.27582,459.1147,191.2309,459.1147Q191.23674,459.1147,191.24258,459.1147Q193.50758,459.76544,195.1223,462.35748Q195.56483,464.09802,195.55647,469.76288L195.5486,475.10406L203.72218,475.1161L203.72838,470.9079Q203.69334,467.2257,203.4545,464.5548Q202.81627,458.32245,200.06943,455.1623Q197.2821,452.002,190.92938,451.99268Q190.9134,451.9926,190.89746,451.9926 Z M226.18652,452.04462Q222.5615,452.04462,219.81798,453.49194Q213.0148,457.1236,212.99303,471.8927L212.96136,493.3786Q212.94951,501.43085,214.39932,506.08624Q216.97704,514.1827,226.48589,514.1967Q226.50151,514.1967,226.51709,514.1967Q233.00873,514.1967,236.44576,510.20557Q239.89104,506.20477,239.90988,493.4184L239.94154,471.93237Q239.95245,464.5276,238.34102,459.71014Q235.72217,452.05865,226.21332,452.04468Q226.19992,452.04462,226.18652,452.04462 Z M471.2318,452.40576Q467.60678,452.40576,464.8633,453.85303Q458.06015,457.48474,458.03833,472.25378L458.0067,493.73975Q457.99484,501.79193,459.44464,506.4474Q462.02237,514.5438,471.53122,514.5578Q471.5468,514.5578,471.56244,514.5578Q478.05408,514.5578,481.4911,510.56665Q484.93637,506.5658,484.9552,493.77948L484.98688,472.29352Q484.99777,464.88873,483.38632,460.07123Q480.76746,452.4198,471.2586,452.40576Q471.2452,452.40576,471.2318,452.40576 Z M437.07523,452.3554Q430.82706,452.3554,427.43173,455.90198Q424.02762,459.41724,424.017,466.6197Q424.0036,475.72394,431.8828,483.26172Q432.40808,483.7885,434.06473,485.36902Q435.72147,486.90906,436.1659,487.35486Q442.22662,493.3119,442.2169,499.9074Q442.2107,504.1156,441.0348,505.81335Q439.9019,507.5072,437.28122,507.5072Q437.2752,507.5072,437.26917,507.5072Q432.49454,507.50018,432.51004,496.97968L432.5167,492.4478L424.46454,492.43597L424.4578,497.0083Q424.4442,506.23395,427.71558,510.4065Q430.98697,514.579,437.542,514.5887Q437.55875,514.5887,437.5755,514.5887Q450.49026,514.5887,450.5524,499.8792Q450.56677,490.12762,442.00067,481.90088L437.63666,477.80768Q432.10132,472.29645,432.11002,466.38885Q432.1156,462.62573,433.37225,461.04956Q434.62595,459.47705,437.1258,459.47705Q437.13174,459.47705,437.13766,459.47705Q439.6464,459.48077,440.69455,462.11243Q441.70233,464.70355,441.6945,470.0042L441.6883,474.2124L449.57864,474.22406L449.58292,471.31067Q449.60287,457.7555,444.02432,454.1056Q441.35632,452.3617,437.1077,452.35547Q437.09146,452.3554,437.07523,452.3554 Z M508.21524,452.46027Q504.5902,452.46027,501.8467,453.90753Q495.0435,457.53925,495.02173,472.3083L494.99008,493.7943Q494.97824,501.8465,496.42807,506.50195Q499.00577,514.59827,508.51462,514.61237Q508.53012,514.61237,508.54562,514.61237Q515.03735,514.61237,518.4744,510.62115Q521.91974,506.62036,521.9386,493.83398L521.9703,472.34802Q521.9812,464.94324,520.36975,460.12573Q517.75085,452.4743,508.24203,452.46027Q508.22864,452.46027,508.21524,452.46027 Z M378.70007,452.2694Q367.47043,452.2694,367.44186,471.67523L367.4162,489.0744Q367.40344,497.73358,369.66177,502.87573Q371.92017,508.01788,377.98965,508.0268Q378.00168,508.0268,378.01367,508.0268Q380.99207,508.0268,383.0087,506.9417Q384.9492,505.85388,386.0454,503.031L386.04926,503.031L386.0407,508.80743Q386.03555,512.28723,384.4545,514.34863Q382.87708,516.4051,379.6113,516.4051Q379.60358,516.4051,379.59586,516.4051Q374.65933,516.3978,370.25327,513.3971L367.2506,519.05743Q372.141,522.9491,379.58618,522.9601Q379.60562,522.9601,379.62506,522.9601Q383.32358,522.9601,386.14276,521.9177Q394.32083,518.8951,394.3368,508.0509L394.4179,453.02094L386.12296,453.00867L386.11636,457.45966Q384.42453,452.27783,378.71924,452.2694Q378.70966,452.2694,378.70007,452.2694 Z"/> </g> </g> <g style="fill:rgb(255,0,0); fill-opacity:1.0; stroke-linejoin: miter"> <path d="M368.12238,194.12044Q366.54453,194.0377,365.13745,195.60045L227.49928,390.30258Q225.80919,395.1435,230.59671,396.0374Q232.91151,395.9036,233.88158,394.25647L368.05768,204.4582L492.32208,384.65918Q495.07336,387.8648,498.53552,384.46765Q499.7362,381.94708,498.39728,380.25922L371.2326,195.77501Q369.95215,194.1616,368.37537,194.12897"/> </g> <g style="fill:rgb(255,0,0); fill-opacity:1.0; stroke-linejoin: miter"> <path d="M367.99692,195.65079Q369.94186,195.83813,370.10178,197.76056Q369.8897,199.6878,368.00613,199.8421Q366.11926,199.68396,365.91052,197.7616Q366.09586,195.83331,367.9727,195.65103 M367.964,188.15002Q364.0048,188.22858,361.19662,190.98334Q358.4442,193.8544,358.4096,197.75565Q358.4827,201.72781,361.21042,204.5234Q364.0848,207.30865,368.02924,207.34286Q371.98886,207.27225,374.803,204.52216Q377.5614,201.65512,377.60263,197.7539Q377.53625,193.78174,374.8144,190.98203Q371.94608,188.19214,368.002,188.1499"/> </g> </g> </svg>